<?xml version="1.0" encoding="UTF-8" standalone="no" ?>
<!DOCTYPE svg PUBLIC "-//W3C//DTD SVG 1.1//EN" "http://www.w3.org/Graphics/SVG/1.1/DTD/svg11.dtd">
<svg xmlns="http://www.w3.org/2000/svg" xmlns:xlink="http://www.w3.org/1999/xlink" version="1.1" width="500" height="500" viewBox="0 0 500 500" xml:space="preserve">
<desc>Created with Fabric.js 5.3.0</desc>
<defs>
</defs>
<g transform="matrix(1 0 0 1 250 250)" id="KZOsr6V7D6GJaiFQR5qOD"  >
<path style="stroke: none; stroke-width: 12.89541149; stroke-dasharray: none; stroke-linecap: butt; stroke-dashoffset: 0; stroke-linejoin: miter; stroke-miterlimit: 4; fill: rgb(237,28,36); fill-rule: evenodd; opacity: 1;" vector-effect="non-scaling-stroke"  transform=" translate(-34, -23)" d="M 41.977553 -2.8421709e-14 C 41.977553 1.76178 41.977553 1.44211 41.977553 3.0158 L 7.4869054 3.0158 L 0 3.0158 L 0 10.50079 L 0 38.47867 L 0 46 L 7.4869054 46 L 49.500802 46 L 56.987708 46 L 68 46 L 68 30.99368 L 56.987708 30.99368 L 56.987708 10.50079 L 56.987708 3.0158 C 56.987708 1.44211 56.987708 1.76178 56.987708 -2.8421709e-14 L 41.977553 -2.8421709e-14 z M 15.010155 17.98578 L 41.977553 17.98578 L 41.977553 30.99368 L 15.010155 30.99368 L 15.010155 17.98578 z" stroke-linecap="round" />
</g>
</svg>